<?xml version="1.0" encoding="utf-8"?>
<!-- Generator: Adobe Illustrator 21.0.2, SVG Export Plug-In . SVG Version: 6.00 Build 0)  -->
<svg version="1.1" id="Capa_1" xmlns="http://www.w3.org/2000/svg" xmlns:xlink="http://www.w3.org/1999/xlink" x="0px" y="0px"
	 viewBox="0 0 462.8 462.8" style="enable-background:new 0 0 462.8 462.8;" xml:space="preserve">
<g id="XMLID_21_">
	<path id="XMLID_904_" d="M454.8,219c-6,5.9-15.1,7.7-23,4.5l-167.7-68.9L339,312.7c3.8,8.1,2.2,17.8-4.2,24.1c0,0-0.1,0.1-0.1,0.1
		c-6.4,6.2-15.9,7.8-24,4l-155.9-74l72,156c3.7,8,2.1,17.5-4.1,23.8c-6.2,6.3-15.6,8.1-23.7,4.6L89.7,403.5l-75.8,74.4l-29.8-30.3
		l86.1-84.4c6.2-6.1,15.4-7.8,23.4-4.3l71.2,31.1L91.6,231.5c-3.8-8.1-2-17.7,4.3-24c0,0,0,0,0.1-0.1c6.4-6.2,15.9-7.8,24-4
		L275.1,277l-72.8-153.9c-3.7-7.9-2.2-17.3,3.8-23.7c6.1-6.4,15.4-8.4,23.5-5l165.2,67.9l-33-64.5c-4.2-8.3-2.6-18.3,4-24.8
		L452-11.4l29.8,30.3l-74.9,73.5l52.1,101.8c4.1,7.9,2.7,17.5-3.3,24.1C455.3,218.5,455.1,218.8,454.8,219z"/>
</g>
</svg>
